<svg width="29" height="29" viewBox="0 0 29 29" fill="none" xmlns="http://www.w3.org/2000/svg">
<path fill-rule="evenodd" clip-rule="evenodd" d="M20 3C20 1.34315 18.6569 0 17 0H12C10.3431 0 9 1.34315 9 3V6C9 7.65685 7.65685 9 6 9H3C1.34315 9 0 10.3431 0 12V17C0 18.6569 1.34315 20 3 20H6C7.65685 20 9 21.3431 9 23V26C9 27.6569 10.3431 29 12 29H17C18.6569 29 20 27.6569 20 26V23C20 21.3431 21.3431 20 23 20H26C27.6569 20 29 18.6569 29 17V12C29 10.3431 27.6569 9 26 9H23C21.3431 9 20 7.65685 20 6V3Z" fill="white"/>
</svg>
